<svg xmlns="http://www.w3.org/2000/svg" xmlns:xlink="http://www.w3.org/1999/xlink" width="263" height="133" viewBox="0 0 263 133">
  <defs>
    <clipPath id="clip-path">
      <path id="Clip_2" data-name="Clip 2" d="M0,0H33.815V38.6H0Z" transform="translate(0 0.265)" fill="none"/>
    </clipPath>
    <clipPath id="clip-path-2">
      <path id="Clip_5" data-name="Clip 5" d="M0,133H263V0H0Z" transform="translate(0.5)" fill="none"/>
    </clipPath>
  </defs>
  <g id="LogoDispersao" transform="translate(-0.5)">
    <g id="Group_3" data-name="Group 3" transform="translate(0.5)">
      <path id="Clip_2-2" data-name="Clip 2" d="M0,0H33.815V38.6H0Z" transform="translate(0 0.265)" fill="none"/>
      <g id="Group_3-2" data-name="Group 3" clip-path="url(#clip-path)">
        <path id="Fill_1" data-name="Fill 1" d="M14.753,38.6H0V0H15.036C20.587,0,25.3,1.777,28.66,5.139s5.156,8.116,5.156,13.715A22.969,22.969,0,0,1,32.5,26.717a18.178,18.178,0,0,1-3.787,6.258C25.269,36.656,20.443,38.6,14.753,38.6ZM7.376,5.913V32.688h7.035a12.708,12.708,0,0,0,5.267-1.039,9.771,9.771,0,0,0,3.676-2.88c1.87-2.37,2.858-5.78,2.858-9.86a17.177,17.177,0,0,0-.671-4.878,12.213,12.213,0,0,0-2.1-4.151,9.973,9.973,0,0,0-3.666-2.886,12.72,12.72,0,0,0-5.362-1.082Z" transform="translate(-0.001 0.265)" fill="#fff"/>
      </g>
    </g>
    <path id="Clip_5-2" data-name="Clip 5" d="M0,133H263V0H0Z" transform="translate(0.5)" fill="none"/>
    <g id="Mask_Group_8" data-name="Mask Group 8" clip-path="url(#clip-path-2)">
      <path id="Fill_4" data-name="Fill 4" d="M0,39H7V0H0Z" transform="translate(59.5 1)" fill="#fff"/>
      <path id="Fill_6" data-name="Fill 6" d="M7.438,28.3C8.4,32.461,11.355,34.43,16.3,34.43c5.053,0,7.152-2.138,7.152-5.287,0-3.376-1.873-5.064-9.026-6.695-10.163-2.419-13-6.021-13-11.364C1.419,4.669,6.246,0,15.386,0c10.05,0,14.082,5.514,14.649,10.971H22.6c-.51-2.758-2.158-5.4-7.438-5.4C11.242,5.57,8.971,7.2,8.971,10.3c0,3.038,1.874,4.276,8.4,5.795C28.672,18.734,31,23.01,31,28.3,31,35.106,25.834,40,15.728,40,5.791,40,.909,34.994,0,28.3Z" transform="translate(121.5)" fill="#fff"/>
      <path id="Fill_7" data-name="Fill 7" d="M7.278,39H0V0H15.564C23.726,0,29,4.646,29,11.836a12.9,12.9,0,0,1-1.064,5.34,10.314,10.314,0,0,1-2.911,3.782,15.12,15.12,0,0,1-9.685,2.994H7.278V39Zm0-33.081V18.035h7.279c4.65,0,7.108-2.085,7.108-6.03a5.613,5.613,0,0,0-1.994-4.65,7.778,7.778,0,0,0-4.891-1.437Z" transform="translate(78.5 47)" fill="#fff"/>
      <path id="Fill_8" data-name="Fill 8" d="M26.08,21.7H7.169V32.969H28L27.1,39H0V0H26.927V6.086H7.169v9.58H26.08Z" transform="translate(132.5 47)" fill="#fff"/>
      <path id="Fill_9" data-name="Fill 9" d="M7.138,39H0V0H16.34c3.934,0,7.193,1.052,9.425,3.043A9.869,9.869,0,0,1,29,10.652a10.127,10.127,0,0,1-1.812,6.093,8.794,8.794,0,0,1-4.155,3.093c3.442,1.078,5.188,4.378,5.188,9.807v1.8c0,2.585,0,5.8.557,7.551H21.862c-.673-1.7-.725-4.645-.725-8.623V29.7c0-2.653-.412-4.149-1.422-5.164-1.14-1.145-3.075-1.656-6.274-1.656h-6.3V39Zm0-33.083V16.964h7.474c2.482,0,4.247-.463,5.4-1.416a5.059,5.059,0,0,0,1.631-4.164c0-3.576-2.333-5.467-6.748-5.467Z" transform="translate(199.5 47)" fill="#fff"/>
      <path id="Fill_10" data-name="Fill 10" d="M7.437,28.3c.965,4.164,3.918,6.132,8.858,6.132,5.053,0,7.154-2.138,7.154-5.287,0-3.377-1.874-5.064-9.028-6.695-10.163-2.42-13-6.019-13-11.364C1.419,4.669,6.245,0,15.386,0c10.05,0,14.08,5.514,14.647,10.971H22.6c-.51-2.758-2.158-5.4-7.437-5.4C11.242,5.57,8.971,7.2,8.971,10.3c0,3.037,1.873,4.275,8.4,5.795C28.672,18.734,31,23.01,31,28.3,31,35.106,25.833,40,15.726,40,5.791,40,.909,34.994,0,28.3Z" transform="translate(59.5 93)" fill="#fff"/>
      <path id="Fill_11" data-name="Fill 11" d="M7.286,51H0L13.6,11.524h9.221L37,51H29.2L25.616,40.959H10.759L7.286,51ZM17.931,17.058h0c-.936,3.587-2.879,9.615-5.522,17.741h11.5c-.578-1.693-1.1-3.224-1.608-4.7-2.123-6.206-3.526-10.3-4.312-13.037ZM23.053,7.93a13.925,13.925,0,0,1-5.295-1.6,9.954,9.954,0,0,0-3.415-1.139c-.955,0-1.481.567-1.481,1.6v.856H8.2V5.933c0-2.166.465-3.69,1.423-4.657A5.106,5.106,0,0,1,13.433,0a14.135,14.135,0,0,1,5.848,1.7,8.471,8.471,0,0,0,3.033,1.035c1.087,0,1.593-.688,1.593-2.166V.057h4.554V1.369c0,2.44-.472,4.136-1.444,5.185A5.052,5.052,0,0,1,23.053,7.93Z" transform="translate(162.5 82)" fill="#fff"/>
      <path id="Fill_12" data-name="Fill 12" d="M18.247,40C12.6,40,7.9,37.984,4.652,34.171a18.6,18.6,0,0,1-3.478-6.354A25.265,25.265,0,0,1,0,20a24.123,24.123,0,0,1,1.253-7.865A18.563,18.563,0,0,1,4.9,5.786C8.271,2,13.06,0,18.752,0A17.4,17.4,0,0,1,32.074,5.513a18.073,18.073,0,0,1,3.649,6.266A24.526,24.526,0,0,1,37,19.831,21.747,21.747,0,0,1,32.284,33.96C28.931,37.911,24.077,40,18.247,40Zm.169-33.988A10.964,10.964,0,0,0,13.5,7.072a9.185,9.185,0,0,0-3.4,2.921c-1.7,2.375-2.6,5.777-2.6,9.838A17.139,17.139,0,0,0,10.243,29.86a9.721,9.721,0,0,0,3.445,3.023,10.441,10.441,0,0,0,4.84,1.106,9.541,9.541,0,0,0,8.438-4.242,17.643,17.643,0,0,0,2.476-9.8c0-4.026-.912-7.433-2.638-9.852a9.423,9.423,0,0,0-3.431-2.985A10.883,10.883,0,0,0,18.416,6.011Z" transform="translate(226.5 93)" fill="#fff"/>
    </g>
  </g>
</svg>
